<svg version="1.1"
     baseProfile="full"
     width="128" height="55"
     xmlns="http://www.w3.org/2000/svg">

    <path transform="translate(-4.41 -4)" d="M25,29.89h-3.6L21.05,28c-1.47,1.66-4,2.23-6,2.23-6.48,0-10.68-4-10.68-8.93s4.2-8.93,10.68-8.93c4.44,0,9.18,1.9,9.69,6.19H19.19c-.18-1.46-2-2.35-4.23-2.35-3.6,0-5,2.54-5,5.09s1.38,5.09,5,5.09c2.76,0,4.62-1,4.92-2.59H16V20.5h9Z" fill="#231f20"/>
    <path transform="translate(-4.41 -4)" d="M31.19,24.65c.09,1.71,1.32,2.83,3.48,2.83a3.21,3.21,0,0,0,2.91-1.37h4.77c-.93,2.88-4.26,4.13-7.74,4.13-5.07,0-8.52-2.45-8.52-6.62,0-3.82,3.81-6.55,8.4-6.55,5.58,0,8.37,3.36,8.13,7.58Zm6.33-2.28a2.86,2.86,0,0,0-3-2.54,3.13,3.13,0,0,0-3.3,2.54Z" fill="#231f20"/>
    <path transform="translate(-4.41 -4)" d="m51.61 17.07c4.83 0 8.22 2.86 8.22 6.6s-3.39 6.58-8.22 6.58-8.19-2.83-8.19-6.58 3.36-6.6 8.19-6.6zm0 10.06c2.37 0 3.12-1.87 3.12-3.46s-0.75-3.48-3.12-3.48-3.09 1.9-3.09 3.48 0.72 3.46 3.09 3.46z" fill="#231f20"/>
    <path transform="translate(-4.41 -4)" d="M60.67,17.43h4.95v2.18h.06c.75-1.58,2.49-2.42,4.68-2.42a6.75,6.75,0,0,1,1.2.1V21a8.77,8.77,0,0,0-1.95-.24c-2.52,0-3.84,1.39-3.84,3v6.17h-5.1Z" fill="#231f20"/>
    <path transform="translate(-4.41 -4)" d="M87.82,28.37c0,2-.48,5.88-7.77,5.88-3.63,0-7-.65-7.65-4h5.1a1.36,1.36,0,0,0,.87,1.08,5,5,0,0,0,1.86.26c2.43,0,2.67-1.37,2.67-2.9V27.53h-.06a5.32,5.32,0,0,1-4.14,1.82c-4.71,0-6.84-2.69-6.84-6.19,0-3.31,2.43-6.1,6.84-6.1A4.79,4.79,0,0,1,82.87,19h.06V17.43h4.89Zm-7.89-8.18a2.8,2.8,0,0,0-3,3.12,2.74,2.74,0,0,0,2.94,2.93A2.77,2.77,0,0,0,83,23.33,2.85,2.85,0,0,0,79.93,20.19Z" fill="#231f20"/>
    <path transform="translate(-4.41 -4)" d="m89.77 17.43h5.1v12.46h-5.1zm5.1-1.56h-5.1v-3.12h5.1z" fill="#231f20"/>
    <path transform="translate(-4.41 -4)" d="M96.37,21.27a3.8,3.8,0,0,1,2.43-3.34,12.45,12.45,0,0,1,4.95-.86c3.69,0,7.26.65,7.26,4.18v5.45a5.94,5.94,0,0,0,.6,3.19h-5.13a4,4,0,0,1-.3-1.18A8.11,8.11,0,0,1,101,30.25c-3,0-5.31-1.2-5.31-3.77,0-4.06,5.52-3.74,9.06-4.32.87-.14,1.35-.38,1.35-1.15,0-.94-1.41-1.3-2.46-1.3-1.41,0-2.31.5-2.55,1.56Zm6.6,6.46c2.43,0,3.24-1.1,3.12-3.67a17.39,17.39,0,0,1-3.15.67c-1.14.22-2.1.6-2.1,1.58S101.83,27.73,103,27.73Z" fill="#231f20"/>
    <path transform="translate(-4.41 -4)" d="M65.28,36.84H58.89v13.3H53.31V36.84H46.93V33H65.28Z" fill="#231f20"/>
    <path transform="translate(-4.41 -4)" d="M65.88,44.9c.09,1.71,1.32,2.83,3.48,2.83a3.21,3.21,0,0,0,2.91-1.37H77c-.93,2.88-4.26,4.13-7.74,4.13-5.07,0-8.52-2.45-8.52-6.62,0-3.82,3.81-6.55,8.4-6.55,5.58,0,8.37,3.36,8.13,7.58Zm6.33-2.28a2.86,2.86,0,0,0-3-2.54,3.13,3.13,0,0,0-3.3,2.54Z" fill="#231f20"/>
    <path transform="translate(-4.41 -4)" d="m89.33 42.24c0-1.06-1.2-1.8-2.49-1.8-2.85 0-3.3 1.95-3.3 3.67a3 3 0 0 0 3 3.26c1.77 0 2.67-0.82 2.91-2.14h4.95c-0.4 3.35-3.66 5.27-7.8 5.27-4.68 0-8.16-2.57-8.16-6.38s3.15-6.79 8.16-6.79c3.87 0 7.32 1.63 7.68 4.92z" fill="#231f20"/>
    <path transform="translate(-4.41 -4)" d="M95.48,33h5.1v6.38h.06c.78-1.27,2.88-2.06,4.74-2.06,5.19,0,5.61,3,5.61,4.82v8h-5.1v-6c0-1.71.24-3.43-2.55-3.43a2.54,2.54,0,0,0-2.76,2.66v6.79h-5.1Z" fill="#231f20"/>
    <path transform="translate(-4.41 -4)" d="M131.27,55.08a1.5,1.5,0,1,1-1.5,1.5A1.49,1.49,0,0,1,131.27,55.08Zm0,2.91a1.42,1.42,0,1,0-1.42-1.41A1.41,1.41,0,0,0,131.27,58Zm-.5-2.25h.56c.39,0,.57.17.57.46a.44.44,0,0,1-.45.45l.53.81h-.1l-.52-.8h-.52v.79h-.08Zm.5.84c.23,0,.56,0,.56-.38s-.24-.38-.5-.38h-.48v.76Z" fill="#231f20"/>
    <polygon points="113.42 29.95 118.7 49.76 113.42 49.76 113.42 29.95" fill="none" stroke="#231f20"/>
    <polygon points="123.98 29.95 118.7 49.76 123.98 49.76 123.98 29.95" fill="none" stroke="#231f20"/>
    <polyline points="121.34 39.65 118.7 0.03 116.06 39.65" fill="none" stroke="#231f20"/>
    <rect x="113.42" y="51.78" width="10.56" height="2.02" fill="none" stroke="#231f20"/>
</svg>
