<?xml version="1.0" encoding="UTF-8" standalone="no"?>
<!-- Created with Inkscape (http://www.inkscape.org/) -->

<svg
   width="121.76507mm"
   height="91.389175mm"
   viewBox="0 0 121.76507 91.389176"
   version="1.1"
   id="svg1"
   inkscape:version="1.3.1 (9b9bdc1480, 2023-11-25, custom)"
   sodipodi:docname="humdrumR_logo.svg"
   xml:space="preserve"
   xmlns:inkscape="http://www.inkscape.org/namespaces/inkscape"
   xmlns:sodipodi="http://sodipodi.sourceforge.net/DTD/sodipodi-0.dtd"
   xmlns="http://www.w3.org/2000/svg"
   xmlns:svg="http://www.w3.org/2000/svg"><sodipodi:namedview
     id="namedview1"
     pagecolor="#ffffff"
     bordercolor="#666666"
     borderopacity="1.0"
     inkscape:showpageshadow="2"
     inkscape:pageopacity="0.0"
     inkscape:pagecheckerboard="0"
     inkscape:deskcolor="#d1d1d1"
     inkscape:document-units="mm"
     inkscape:zoom="0.65365277"
     inkscape:cx="980.64298"
     inkscape:cy="-236.36403"
     inkscape:window-width="1870"
     inkscape:window-height="1016"
     inkscape:window-x="50"
     inkscape:window-y="27"
     inkscape:window-maximized="1"
     inkscape:current-layer="layer1"
     showguides="false"
     showgrid="false" /><defs
     id="defs1"><inkscape:path-effect
       effect="powerclip"
       id="path-effect142"
       is_visible="true"
       lpeversion="1"
       inverse="true"
       flatten="false"
       hide_clip="false"
       message="Use fill-rule evenodd on &lt;b&gt;fill and stroke&lt;/b&gt; dialog if no flatten result after convert clip to paths." /><inkscape:path-effect
       effect="powerclip"
       id="path-effect139"
       is_visible="true"
       lpeversion="1"
       inverse="true"
       flatten="false"
       hide_clip="false"
       message="Use fill-rule evenodd on &lt;b&gt;fill and stroke&lt;/b&gt; dialog if no flatten result after convert clip to paths." /><inkscape:path-effect
       effect="powerclip"
       id="path-effect105"
       is_visible="true"
       lpeversion="1"
       inverse="true"
       flatten="false"
       hide_clip="false"
       message="Use fill-rule evenodd on &lt;b&gt;fill and stroke&lt;/b&gt; dialog if no flatten result after convert clip to paths." /><inkscape:path-effect
       effect="powerclip"
       id="path-effect100"
       is_visible="true"
       lpeversion="1"
       inverse="true"
       flatten="false"
       hide_clip="false"
       message="Use fill-rule evenodd on &lt;b&gt;fill and stroke&lt;/b&gt; dialog if no flatten result after convert clip to paths." /><inkscape:path-effect
       effect="powerclip"
       id="path-effect70"
       is_visible="true"
       lpeversion="1"
       inverse="true"
       flatten="false"
       hide_clip="false"
       message="Use fill-rule evenodd on &lt;b&gt;fill and stroke&lt;/b&gt; dialog if no flatten result after convert clip to paths." /><inkscape:path-effect
       effect="powerclip"
       id="path-effect19"
       is_visible="true"
       lpeversion="1"
       inverse="true"
       flatten="false"
       hide_clip="false"
       message="Use fill-rule evenodd on &lt;b&gt;fill and stroke&lt;/b&gt; dialog if no flatten result after convert clip to paths." /><inkscape:path-effect
       effect="powerclip"
       id="path-effect15"
       is_visible="true"
       lpeversion="1"
       inverse="true"
       flatten="false"
       hide_clip="false"
       message="Use fill-rule evenodd on &lt;b&gt;fill and stroke&lt;/b&gt; dialog if no flatten result after convert clip to paths." /><inkscape:path-effect
       effect="powerclip"
       id="path-effect131"
       is_visible="true"
       lpeversion="1"
       inverse="true"
       flatten="false"
       hide_clip="false"
       message="Use fill-rule evenodd on &lt;b&gt;fill and stroke&lt;/b&gt; dialog if no flatten result after convert clip to paths." /><inkscape:path-effect
       effect="powerclip"
       id="path-effect123"
       is_visible="true"
       lpeversion="1"
       inverse="true"
       flatten="false"
       hide_clip="false"
       message="Use fill-rule evenodd on &lt;b&gt;fill and stroke&lt;/b&gt; dialog if no flatten result after convert clip to paths." /><inkscape:path-effect
       effect="powerclip"
       id="path-effect119"
       is_visible="true"
       lpeversion="1"
       inverse="true"
       flatten="false"
       hide_clip="false"
       message="Use fill-rule evenodd on &lt;b&gt;fill and stroke&lt;/b&gt; dialog if no flatten result after convert clip to paths." /><rect
       x="34.749966"
       y="-66.980919"
       width="110.01099"
       height="99.444778"
       id="rect109" /><inkscape:path-effect
       effect="powerclip"
       id="path-effect97"
       is_visible="true"
       lpeversion="1"
       inverse="true"
       flatten="false"
       hide_clip="false"
       message="Use fill-rule evenodd on &lt;b&gt;fill and stroke&lt;/b&gt; dialog if no flatten result after convert clip to paths." /><inkscape:path-effect
       effect="powerclip"
       id="path-effect95"
       is_visible="true"
       lpeversion="1"
       inverse="true"
       flatten="false"
       hide_clip="false"
       message="Use fill-rule evenodd on &lt;b&gt;fill and stroke&lt;/b&gt; dialog if no flatten result after convert clip to paths." /><clipPath
       clipPathUnits="userSpaceOnUse"
       id="clipPath95"><rect
         style="display:block;fill:#ff9b00;stroke-width:0"
         id="rect95"
         width="42.187275"
         height="68.569153"
         x="-69.006393"
         y="254.14609" /></clipPath><clipPath
       clipPathUnits="userSpaceOnUse"
       id="clipPath108"><rect
         style="display:block;fill:#ff9b00;stroke-width:0"
         id="rect108"
         width="35.848804"
         height="61.008835"
         x="22.431286"
         y="259.8551"
         transform="scale(-1,1)" /></clipPath><clipPath
       clipPathUnits="userSpaceOnUse"
       id="clipath_lpe_path-effect119"><rect
         style="display:block;fill:#ff9b00;stroke-width:0"
         id="rect119"
         width="42.187275"
         height="68.569153"
         x="-69.006393"
         y="254.14609" /></clipPath><clipPath
       clipPathUnits="userSpaceOnUse"
       id="clipath_lpe_path-effect123"><rect
         style="display:block;fill:#ff9b00;stroke-width:0"
         id="rect123"
         width="42.187275"
         height="68.569153"
         x="-69.006393"
         y="254.14609" /></clipPath><clipPath
       clipPathUnits="userSpaceOnUse"
       id="clipath_lpe_path-effect131"><rect
         style="display:block;fill:#ff9b00;stroke-width:0"
         id="rect131"
         width="42.187275"
         height="68.569153"
         x="-69.006393"
         y="254.14609" /></clipPath><clipPath
       clipPathUnits="userSpaceOnUse"
       id="clipath_lpe_path-effect15"><rect
         style="display:block;fill:#ff9b00;stroke-width:0"
         id="rect15"
         width="42.187275"
         height="68.569153"
         x="-69.006393"
         y="254.14609" /></clipPath><clipPath
       clipPathUnits="userSpaceOnUse"
       id="clipath_lpe_path-effect19"><rect
         style="display:block;fill:#ff9b00;stroke-width:0"
         id="rect19"
         width="42.187275"
         height="68.569153"
         x="-69.006393"
         y="254.14609" /></clipPath><clipPath
       clipPathUnits="userSpaceOnUse"
       id="clipath_lpe_path-effect70"><rect
         style="display:block;fill:#ff9b00;stroke-width:0"
         id="rect70"
         width="42.187275"
         height="68.569153"
         x="-69.006393"
         y="254.14609" /></clipPath><clipPath
       clipPathUnits="userSpaceOnUse"
       id="clipath_lpe_path-effect100"><rect
         style="display:block;fill:#ff9b00;stroke-width:0"
         id="rect100"
         width="42.187275"
         height="68.569153"
         x="-69.006393"
         y="254.14609" /></clipPath><clipPath
       clipPathUnits="userSpaceOnUse"
       id="clipath_lpe_path-effect105"><rect
         style="display:block;fill:#ff9b00;stroke-width:0"
         id="rect105"
         width="42.187275"
         height="68.569153"
         x="-69.006393"
         y="254.14609" /></clipPath><clipPath
       clipPathUnits="userSpaceOnUse"
       id="clipath_lpe_path-effect19-3"><rect
         style="display:none;fill:#ff9b00;stroke-width:0"
         id="rect19-1"
         width="42.187275"
         height="68.569153"
         x="-69.006393"
         y="254.14609"
         d="m -69.006393,254.14609 h 42.187275 v 68.56915 h -42.187275 z" /><path
         id="lpe_path-effect19-8"
         style="fill:#ff9b00;stroke-width:0"
         class="powerclip"
         d="m -94.168028,256.46209 h 51.497762 v 54.26674 h -51.497762 z m 25.161635,-2.316 v 68.56915 h 42.187275 v -68.56915 z" /></clipPath><inkscape:path-effect
       effect="powerclip"
       id="path-effect19-2"
       is_visible="true"
       lpeversion="1"
       inverse="true"
       flatten="false"
       hide_clip="false"
       message="Use fill-rule evenodd on &lt;b&gt;fill and stroke&lt;/b&gt; dialog if no flatten result after convert clip to paths." /><clipPath
       clipPathUnits="userSpaceOnUse"
       id="clipPath108-7"><rect
         style="display:block;fill:#ff9b00;stroke-width:0"
         id="rect108-0"
         width="35.848804"
         height="61.008835"
         x="22.431286"
         y="259.8551"
         transform="scale(-1,1)" /></clipPath><clipPath
       clipPathUnits="userSpaceOnUse"
       id="clipath_lpe_path-effect19-2"><rect
         style="display:block;fill:#ff9b00;stroke-width:0"
         id="rect106"
         width="42.187275"
         height="68.569153"
         x="-69.006393"
         y="254.14609" /></clipPath><clipPath
       clipPathUnits="userSpaceOnUse"
       id="clipath_lpe_path-effect139"><rect
         style="display:block;fill:#ff9b00;stroke-width:0"
         id="rect139"
         width="42.187275"
         height="68.569153"
         x="-69.006393"
         y="254.14609" /></clipPath><clipPath
       clipPathUnits="userSpaceOnUse"
       id="clipath_lpe_path-effect142"><rect
         style="display:none;fill:#ff9b00;stroke-width:0"
         id="rect142"
         width="42.187275"
         height="68.569153"
         x="-69.006393"
         y="254.14609"
         d="m -69.006393,254.14609 h 42.187275 v 68.56915 h -42.187275 z" /><path
         id="lpe_path-effect142"
         style="fill:#ff9b00;stroke-width:0"
         class="powerclip"
         d="m -94.168028,256.46209 h 51.497762 v 54.26674 h -51.497762 z m 25.161635,-2.316 v 68.56915 h 42.187275 v -68.56915 z" /></clipPath><clipPath
       clipPathUnits="userSpaceOnUse"
       id="clipPath144"><rect
         style="fill:#ff9b00;stroke:#ffffff;stroke-width:0"
         id="rect144"
         width="1.6670491"
         height="0.64542246"
         x="36.59779"
         y="37.190613" /></clipPath></defs><g
     inkscape:label="Layer 1"
     inkscape:groupmode="layer"
     id="layer1"
     transform="translate(-40.534116,-94.0421)"><text
       xml:space="preserve"
       transform="scale(0.26458333)"
       id="text108"
       style="font-style:normal;font-variant:normal;font-weight:normal;font-stretch:normal;font-size:40px;line-height:1.25;font-family:sans-serif;-inkscape-font-specification:'sans-serif, Normal';font-variant-ligatures:normal;font-variant-caps:normal;font-variant-numeric:normal;font-variant-east-asian:normal;letter-spacing:0px;word-spacing:0px;white-space:pre;shape-inside:url(#rect109);display:inline;fill:#000000;fill-opacity:1;stroke:none"><tspan
         x="34.75"
         y="67.853516"
         id="tspan4"><tspan
           dx="0 29.277344 33.515625 25.449219 25.449219 25.449219"
           id="tspan3">U+211D</tspan></tspan></text><g
       id="g105"
       transform="matrix(2.8562999,0,0,2.7717708,34.997165,9.6855265)"><path
         style="fill:#000000"
         d="m -48.327182,264.02895 c -3.31513,-2.01039 -3.80694,-1.56646 -6.15187,-1.87845 l -4.00397,-0.53272 -7.66346,-0.12245 c -8.10299,-0.12947 -11.67952,0.10018 -16.004356,1.02768 -1.30288,0.27941 -2.46373,0.50802 -2.57969,0.50802 l -3.03239,1.08518 c -0.50664,0.31312 -1.03155,0.85965 -1.16647,1.2145 -0.27431,0.72149 -0.33046,6.74795 -0.0719,7.71383 0.10898,0.40707 0.56319,0.79097 1.3193,1.11507 l 1.15311,0.49428 v 10.05242 10.05241 l -1.19063,0.69775 -1.19062,0.69776 v 2.84427 c 0,3.26614 0.0343,3.32752 2.37141,4.24662 4.29466,1.68892 10.383066,2.48785 18.927536,2.48369 9.33862,-0.005 15.64307,-0.98879 18.71927,-2.92242 0.91387,-0.57444 0.99339,-0.72261 1.00744,-1.87712 0.0331,-2.71906 0.6798,-2.5169 -0.44898,-3.59682 -1.12611,-1.07736 -0.79422,-12.4565 0.15062,-27.72346 z m -27.97113,38.51311 c -0.32463,-0.32463 -0.18096,-1.60711 0.21705,-1.93743 0.54027,-0.44838 1.64938,-0.12317 1.86173,0.54589 0.30978,0.97601 -1.36992,2.1004 -2.07878,1.39154 z m 14.1343,-0.19255 c -0.4207,-0.50691 -0.27794,-1.48467 0.26659,-1.82581 0.52166,-0.32682 1.7197,-0.0537 1.90715,0.43477 0.42626,1.11081 -1.42377,2.2947 -2.17374,1.39104 z m -10.21434,-2.7718 c -1.02123,-0.10541 -2.00349,-0.28233 -2.18281,-0.39316 -0.18116,-0.11196 -0.32604,-0.73733 -0.32604,-1.40737 0,-1.12406 0.0404,-1.19444 0.59531,-1.03738 1.06784,0.30223 7.68247,0.50176 10.05762,0.30338 l 2.31854,-0.19364 -0.0696,-9.03794 -0.0696,-9.03794 -3.43958,-0.017 c -8.93661,-0.0442 -8.681053,-0.12551 -9.460183,-0.0937 -0.398657,0.0163 -0.169907,2.90753 -0.180337,9.68273 l -0.0168,10.89494 -1.52136,-0.14215 c -0.83674,-0.0782 -1.9976,-0.2543 -2.57968,-0.39137 -0.582086,-0.13707 -1.687316,-0.31397 -2.456076,-0.3931 -0.76876,-0.0791 -1.72126,-0.23072 -2.11667,-0.33684 l -0.71892,-0.19296 V 286.0971 c 0,-6.42791 5e-5,-11.68755 1e-4,-11.68809 5e-5,-5.4e-4 0.83349,0.18374 1.85208,0.4095 3.971006,0.88015 7.405986,1.15947 14.551986,1.18334 7.2243,0.0241 10.48777,-0.24508 13.89062,-1.14584 0.80037,-0.21186 1.90872,-0.46557 2.46301,-0.5638 l 1.00781,-0.1786 -0.049,10.74309 c -0.0459,10.04738 -0.0184,10.7655 0.42425,11.08916 0.7378,0.53949 0.3141,1.05937 -1.27045,1.55885 -1.93538,0.61008 -6.89006,1.50957 -8.31517,1.50957 -0.62677,0 -1.13959,0.0992 -1.13959,0.22049 0,0.26714 0.30808,0.24244 -5.02708,0.40312 -2.40109,0.0723 -5.20117,0.0452 -6.2224,-0.0602 z m 20.4277,-3.93687 c -0.0666,-0.25466 -0.121,-0.0463 -0.121,0.46303 0,0.50932 0.0544,0.71768 0.121,0.46302 0.0666,-0.25467 0.0666,-0.67138 0,-0.92605 z m -23.99488,-8.13089 v -9.12309 l -0.59531,-0.12268 c -0.32743,-0.0675 -1.21683,-0.17099 -1.97645,-0.23003 l -1.381126,-0.10733 0.0582,9.02238 0.0582,9.02237 1.852076,0.29938 c 1.01865,0.16465 1.88185,0.31348 1.91823,0.33073 0.0364,0.0172 0.0661,-4.07404 0.0661,-9.09173 z m 17.79323,8.70952 1.25677,-0.17569 v -9.00264 -9.00265 l -1.38906,0.16685 c -0.76399,0.0918 -1.71649,0.16788 -2.11667,0.16914 l -0.72761,0.002 v 9.15757 9.15757 l 0.8599,-0.14838 c 0.47294,-0.0816 1.42544,-0.22744 2.11667,-0.32407 z m -22.591026,-10.09995 c 0.027,-4.25446 0.11152,-7.89809 0.18783,-8.09695 0.10045,-0.26176 -0.30497,-0.45573 -1.46865,-0.70268 -0.88407,-0.18761 -1.63422,-0.29445 -1.667,-0.23742 -0.0328,0.057 -0.0267,4.12205 0.0135,9.03337 l 0.073,8.92969 0.72071,0.0186 c 0.39638,0.0102 0.95883,0.11271 1.24987,0.22775 0.44653,0.17649 0.55356,0.0806 0.68541,-0.61391 0.0859,-0.45268 0.17834,-4.30399 0.20533,-8.55845 z m 27.254016,8.91147 1.60772,-0.3163 0.0727,-9.19613 c 0.0718,-9.08716 0.0666,-9.19183 -0.44574,-8.83282 -0.28515,0.19982 -1.20788,0.49895 -2.05052,0.66472 l -1.53207,0.30142 v 8.98972 c 0,7.59287 0.0575,8.96765 0.37008,8.8477 0.20354,-0.0781 1.09356,-0.28435 1.97781,-0.45831 z m -33.039546,3.71871 c 0,-0.51472 0.13402,-0.79375 0.38126,-0.79375 0.53409,0 0.65177,0.29942 0.38995,0.99219 -0.32156,0.85082 -0.77121,0.73512 -0.77121,-0.19844 z m 24.224396,-24.06052 c -0.60817,-0.67202 -0.5021,-1.53281 0.24955,-2.02532 0.61274,-0.40148 0.71018,-0.40148 1.32292,0 0.7593,0.49751 0.82074,0.86981 0.27268,1.65228 -0.53427,0.76277 -1.34424,0.92653 -1.84515,0.37304 z m -14.02294,-0.34007 c -0.78335,-1.11838 -0.35014,-2.05779 0.94895,-2.05779 1.32434,0 1.83634,1.48057 0.80059,2.3151 -0.61812,0.49804 -1.28966,0.39927 -1.74954,-0.25731 z m 1.30791,-4.2149 c -3.78102,-0.30018 -8.689646,-1.17697 -10.043476,-1.794 -1.64023,-0.74755 -2.19045,-1.24092 -1.81207,-1.62481 0.24626,-0.24983 0.53592,-0.21472 1.32292,0.16032 1.58068,0.75328 4.42295,1.41987 8.019086,1.88069 4.7323,0.60642 15.80761,0.62295 19.71146,0.0294 3.93287,-0.59794 6.70386,-1.1968 7.59518,-1.64145 0.40702,-0.20305 0.73919,-0.25243 0.73919,-0.10989 0,0.45444 -2.95267,1.5879 -5.82083,2.23448 -4.76649,1.07452 -12.69288,1.42245 -19.71146,0.86524 z m -1.20339,-2.73654 c -4.527886,-0.54892 -8.718476,-1.62577 -8.718476,-2.24038 0,-0.51287 3.12389,-1.39631 7.672906,-2.1699 2.67533,-0.45497 13.57371,-0.45573 17.33021,-0.001 6.62822,0.80197 9.75632,1.44666 9.59638,1.97778 -0.28384,0.94254 -4.03438,2.00553 -8.99064,2.54817 -3.42724,0.37523 -13.40912,0.3076 -16.89038,-0.11444 z"
         id="path104"
         clip-path="url(#clipath_lpe_path-effect142)"
         transform="matrix(0.32450977,0,0,0.32450977,60.035468,-35.815151)"
         inkscape:original-d="m -48.327182,264.02895 c -3.31513,-2.01039 -3.80694,-1.56646 -6.15187,-1.87845 l -4.00397,-0.53272 -7.66346,-0.12245 c -8.10299,-0.12947 -11.67952,0.10018 -16.004356,1.02768 -1.30288,0.27941 -2.46373,0.50802 -2.57969,0.50802 l -3.03239,1.08518 c -0.50664,0.31312 -1.03155,0.85965 -1.16647,1.2145 -0.27431,0.72149 -0.33046,6.74795 -0.0719,7.71383 0.10898,0.40707 0.56319,0.79097 1.3193,1.11507 l 1.15311,0.49428 v 10.05242 10.05241 l -1.19063,0.69775 -1.19062,0.69776 v 2.84427 c 0,3.26614 0.0343,3.32752 2.37141,4.24662 4.29466,1.68892 10.383066,2.48785 18.927536,2.48369 9.33862,-0.005 15.64307,-0.98879 18.71927,-2.92242 0.91387,-0.57444 0.99339,-0.72261 1.00744,-1.87712 0.0331,-2.71906 0.6798,-2.5169 -0.44898,-3.59682 -1.12611,-1.07736 -0.79422,-12.4565 0.15062,-27.72346 z m -27.97113,38.51311 c -0.32463,-0.32463 -0.18096,-1.60711 0.21705,-1.93743 0.54027,-0.44838 1.64938,-0.12317 1.86173,0.54589 0.30978,0.97601 -1.36992,2.1004 -2.07878,1.39154 z m 14.1343,-0.19255 c -0.4207,-0.50691 -0.27794,-1.48467 0.26659,-1.82581 0.52166,-0.32682 1.7197,-0.0537 1.90715,0.43477 0.42626,1.11081 -1.42377,2.2947 -2.17374,1.39104 z m -10.21434,-2.7718 c -1.02123,-0.10541 -2.00349,-0.28233 -2.18281,-0.39316 -0.18116,-0.11196 -0.32604,-0.73733 -0.32604,-1.40737 0,-1.12406 0.0404,-1.19444 0.59531,-1.03738 1.06784,0.30223 7.68247,0.50176 10.05762,0.30338 l 2.31854,-0.19364 -0.0696,-9.03794 -0.0696,-9.03794 -3.43958,-0.017 c -8.93661,-0.0442 -8.681053,-0.12551 -9.460183,-0.0937 -0.398657,0.0163 -0.169907,2.90753 -0.180337,9.68273 l -0.0168,10.89494 -1.52136,-0.14215 c -0.83674,-0.0782 -1.9976,-0.2543 -2.57968,-0.39137 -0.582086,-0.13707 -1.687316,-0.31397 -2.456076,-0.3931 -0.76876,-0.0791 -1.72126,-0.23072 -2.11667,-0.33684 l -0.71892,-0.19296 V 286.0971 c 0,-6.42791 5e-5,-11.68755 1e-4,-11.68809 5e-5,-5.4e-4 0.83349,0.18374 1.85208,0.4095 3.971006,0.88015 7.405986,1.15947 14.551986,1.18334 7.2243,0.0241 10.48777,-0.24508 13.89062,-1.14584 0.80037,-0.21186 1.90872,-0.46557 2.46301,-0.5638 l 1.00781,-0.1786 -0.049,10.74309 c -0.0459,10.04738 -0.0184,10.7655 0.42425,11.08916 0.7378,0.53949 0.3141,1.05937 -1.27045,1.55885 -1.93538,0.61008 -6.89006,1.50957 -8.31517,1.50957 -0.62677,0 -1.13959,0.0992 -1.13959,0.22049 0,0.26714 0.30808,0.24244 -5.02708,0.40312 -2.40109,0.0723 -5.20117,0.0452 -6.2224,-0.0602 z m 20.4277,-3.93687 c -0.0666,-0.25466 -0.121,-0.0463 -0.121,0.46303 0,0.50932 0.0544,0.71768 0.121,0.46302 0.0666,-0.25467 0.0666,-0.67138 0,-0.92605 z m -23.99488,-8.13089 v -9.12309 l -0.59531,-0.12268 c -0.32743,-0.0675 -1.21683,-0.17099 -1.97645,-0.23003 l -1.381126,-0.10733 0.0582,9.02238 0.0582,9.02237 1.852076,0.29938 c 1.01865,0.16465 1.88185,0.31348 1.91823,0.33073 0.0364,0.0172 0.0661,-4.07404 0.0661,-9.09173 z m 17.79323,8.70952 1.25677,-0.17569 v -9.00264 -9.00265 l -1.38906,0.16685 c -0.76399,0.0918 -1.71649,0.16788 -2.11667,0.16914 l -0.72761,0.002 v 9.15757 9.15757 l 0.8599,-0.14838 c 0.47294,-0.0816 1.42544,-0.22744 2.11667,-0.32407 z m -22.591026,-10.09995 c 0.027,-4.25446 0.11152,-7.89809 0.18783,-8.09695 0.10045,-0.26176 -0.30497,-0.45573 -1.46865,-0.70268 -0.88407,-0.18761 -1.63422,-0.29445 -1.667,-0.23742 -0.0328,0.057 -0.0267,4.12205 0.0135,9.03337 l 0.073,8.92969 0.72071,0.0186 c 0.39638,0.0102 0.95883,0.11271 1.24987,0.22775 0.44653,0.17649 0.55356,0.0806 0.68541,-0.61391 0.0859,-0.45268 0.17834,-4.30399 0.20533,-8.55845 z m 27.254016,8.91147 1.60772,-0.3163 0.0727,-9.19613 c 0.0718,-9.08716 0.0666,-9.19183 -0.44574,-8.83282 -0.28515,0.19982 -1.20788,0.49895 -2.05052,0.66472 l -1.53207,0.30142 v 8.98972 c 0,7.59287 0.0575,8.96765 0.37008,8.8477 0.20354,-0.0781 1.09356,-0.28435 1.97781,-0.45831 z m -33.039546,3.71871 c 0,-0.51472 0.13402,-0.79375 0.38126,-0.79375 0.53409,0 0.65177,0.29942 0.38995,0.99219 -0.32156,0.85082 -0.77121,0.73512 -0.77121,-0.19844 z m 24.224396,-24.06052 c -0.60817,-0.67202 -0.5021,-1.53281 0.24955,-2.02532 0.61274,-0.40148 0.71018,-0.40148 1.32292,0 0.7593,0.49751 0.82074,0.86981 0.27268,1.65228 -0.53427,0.76277 -1.34424,0.92653 -1.84515,0.37304 z m -14.02294,-0.34007 c -0.78335,-1.11838 -0.35014,-2.05779 0.94895,-2.05779 1.32434,0 1.83634,1.48057 0.80059,2.3151 -0.61812,0.49804 -1.28966,0.39927 -1.74954,-0.25731 z m 1.30791,-4.2149 c -3.78102,-0.30018 -8.689646,-1.17697 -10.043476,-1.794 -1.64023,-0.74755 -2.19045,-1.24092 -1.81207,-1.62481 0.24626,-0.24983 0.53592,-0.21472 1.32292,0.16032 1.58068,0.75328 4.42295,1.41987 8.019086,1.88069 4.7323,0.60642 15.80761,0.62295 19.71146,0.0294 3.93287,-0.59794 6.70386,-1.1968 7.59518,-1.64145 0.40702,-0.20305 0.73919,-0.25243 0.73919,-0.10989 0,0.45444 -2.95267,1.5879 -5.82083,2.23448 -4.76649,1.07452 -12.69288,1.42245 -19.71146,0.86524 z m -1.20339,-2.73654 c -4.527886,-0.54892 -8.718476,-1.62577 -8.718476,-2.24038 0,-0.51287 3.12389,-1.39631 7.672906,-2.1699 2.67533,-0.45497 13.57371,-0.45573 17.33021,-0.001 6.62822,0.80197 9.75632,1.44666 9.59638,1.97778 -0.28384,0.94254 -4.03438,2.00553 -8.99064,2.54817 -3.42724,0.37523 -13.40912,0.3076 -16.89038,-0.11444 z"
         inkscape:path-effect="#path-effect142"
         sodipodi:nodetypes="cscssccssscccccsscsssccssssssssssssscccssscsssscssssssccsssssssssssccsscccssccccccsccccsccssssccssssccssscssscsssssssssssssssssssssssscsscsscc" /><path
         style="fill:#000000"
         d="m -78.699228,263.89995 c 3.315124,-2.01039 3.806933,-1.56646 6.151859,-1.87845 l 4.003963,-0.53272 7.663446,-0.12245 c 8.102975,-0.12947 11.679498,0.10018 16.004326,1.02768 1.91253,0.48669 3.921506,0.54838 5.61207,1.5932 0.506639,0.31312 1.031548,0.85965 1.166468,1.2145 0.27431,0.72149 0.330459,6.74795 0.0719,7.71383 -0.10898,0.40707 -0.563189,0.79097 -1.319298,1.11507 l -1.153108,0.49428 v 10.05242 10.05241 l 1.190628,0.69775 1.190618,0.69776 v 2.84427 c 0,3.26614 -0.0343,3.32752 -2.371406,4.24662 -4.294652,1.68892 -10.383047,2.48785 -18.927501,2.48369 -9.338603,-0.005 -15.643041,-0.98879 -18.719236,-2.92242 -0.913868,-0.57444 -0.993388,-0.72261 -1.007438,-1.87712 -0.0331,-2.71906 -0.679799,-2.5169 0.448979,-3.59682 1.126108,-1.07736 0.794219,-12.4565 -0.150619,-27.72346 z m 27.971079,38.51311 c 0.32463,-0.32463 0.18096,-1.60711 -0.217049,-1.93743 -0.540269,-0.44838 -1.649377,-0.12317 -1.861727,0.54589 -0.309779,0.97601 1.369917,2.1004 2.078776,1.39154 z m -14.134274,-0.19255 c 0.420699,-0.50691 0.27794,-1.48467 -0.266589,-1.82581 -0.521659,-0.32682 -1.719697,-0.0537 -1.907147,0.43477 -0.426259,1.11081 1.423767,2.2947 2.173736,1.39104 z m 10.214321,-2.7718 c 1.021228,-0.10541 2.003487,-0.28233 2.182806,-0.39316 0.18116,-0.11196 0.32604,-0.73733 0.32604,-1.40737 0,-1.12406 -0.0404,-1.19444 -0.595309,-1.03738 -1.067838,0.30223 -7.682456,0.50176 -10.057602,0.30338 l -2.318535,-0.19364 0.0696,-9.03794 0.0696,-9.03794 1.72672,-0.009 1.712854,-0.008 c 8.936594,-0.0442 8.780653,-0.0544 9.475057,-0.16482 0.357425,-0.0568 0.155015,2.97866 0.165445,9.75386 l 0.0168,10.89494 1.521358,-0.14215 c 0.836738,-0.0782 1.997596,-0.2543 2.579675,-0.39137 0.582085,-0.13707 1.687313,-0.31397 2.456071,-0.3931 0.768759,-0.0791 1.721257,-0.23072 2.116666,-0.33684 l 0.718919,-0.19296 v -11.68711 c 0,-6.42791 -5e-5,-11.68755 -10e-5,-11.68809 -5e-5,-5.4e-4 -0.833488,0.18374 -1.852077,0.4095 -3.970998,0.88015 -7.405972,1.15947 -14.551959,1.18334 -7.224287,0.0241 -10.487751,-0.24508 -13.890594,-1.14584 -0.800369,-0.21186 -1.908717,-0.46557 -2.463006,-0.5638 l -1.007808,-0.1786 0.049,10.74309 c 0.0459,10.04738 0.0184,10.7655 -0.424249,11.08916 -0.737799,0.53949 -0.3141,1.05937 1.270447,1.55885 1.935377,0.61008 6.890048,1.50957 8.315155,1.50957 0.626769,0 1.139588,0.0992 1.139588,0.22049 0,0.26714 -0.308079,0.24244 5.027071,0.40312 2.401085,0.0723 5.20116,0.0452 6.222388,-0.0602 z m -20.427662,-3.93687 c 0.0666,-0.25466 0.121,-0.0463 0.121,0.46303 0,0.50932 -0.0544,0.71768 -0.121,0.46302 -0.0666,-0.25467 -0.0666,-0.67138 0,-0.92605 z m 23.994836,-8.13089 v -9.12309 l 0.595309,-0.12268 c 0.327429,-0.0675 1.216828,-0.17099 1.976446,-0.23003 l 1.381124,-0.10733 -0.0582,9.02238 -0.0582,9.02237 -1.852073,0.29938 c -1.018648,0.16465 -1.881846,0.31348 -1.918226,0.33073 -0.0364,0.0172 -0.0661,-4.07404 -0.0661,-9.09173 z m -17.793198,8.70952 -1.256767,-0.17569 v -9.00264 -9.00265 l 1.389057,0.16685 c 0.763989,0.0918 1.716487,0.16788 2.116666,0.16914 l 0.727609,0.002 v 9.15757 9.15757 l -0.859898,-0.14838 c -0.47294,-0.0816 -1.425438,-0.22744 -2.116667,-0.32407 z m 22.590985,-10.09995 c -0.027,-4.25446 -0.11152,-7.89809 -0.18783,-8.09695 -0.100449,-0.26176 0.30497,-0.45573 1.468648,-0.70268 0.884068,-0.18761 1.634217,-0.29445 1.666997,-0.23742 0.0328,0.057 0.0267,4.12205 -0.0135,9.03337 l -0.073,8.92969 -0.720709,0.0186 c -0.396379,0.0102 -0.958828,0.11271 -1.249868,0.22775 -0.446529,0.17649 -0.553559,0.0806 -0.685408,-0.61391 -0.0859,-0.45268 -0.17834,-4.30399 -0.20533,-8.55845 z m -27.253966,8.91147 -1.607717,-0.3163 -0.0727,-9.19613 c -0.0718,-9.08716 -0.0666,-9.19183 0.445739,-8.83282 0.28515,0.19982 1.207878,0.49895 2.050516,0.66472 l 1.532068,0.30142 v 8.98972 c 0,7.59287 -0.0575,8.96765 -0.37008,8.8477 -0.203539,-0.0781 -1.093558,-0.28435 -1.977806,-0.45831 z m 33.039485,3.71871 c 0,-0.51472 -0.134019,-0.79375 -0.381259,-0.79375 -0.534089,0 -0.651769,0.29942 -0.389949,0.99219 0.321559,0.85082 0.771208,0.73512 0.771208,-0.19844 z m -24.224351,-24.06052 c 0.608169,-0.67202 0.502099,-1.53281 -0.24955,-2.02532 -0.612739,-0.40148 -0.710178,-0.40148 -1.322917,0 -0.759299,0.49751 -0.820739,0.86981 -0.27268,1.65228 0.534269,0.76277 1.344238,0.92653 1.845147,0.37304 z m 14.022914,-0.34007 c 0.783349,-1.11838 0.350139,-2.05779 -0.948948,-2.05779 -1.324338,0 -1.836337,1.48057 -0.800589,2.3151 0.618119,0.49804 1.289658,0.39927 1.749537,-0.25731 z m -1.307907,-4.2149 c 3.781013,-0.30018 8.68963,-1.17697 10.043457,-1.794 1.640227,-0.74755 2.190446,-1.24092 1.812067,-1.62481 -0.24626,-0.24983 -0.535919,-0.21472 -1.322918,0.16032 -1.580677,0.75328 -4.422942,1.41987 -8.019071,1.88069 -4.732291,0.60642 -15.807581,0.62295 -19.711424,0.0294 -3.932863,-0.59794 -6.703848,-1.1968 -7.595166,-1.64145 -0.407019,-0.20305 -0.739189,-0.25243 -0.739189,-0.10989 0,0.45444 2.952665,1.5879 5.82082,2.23448 4.766481,1.07452 12.692856,1.42245 19.711424,0.86524 z m 1.203387,-2.73654 c 4.527878,-0.54892 8.71846,-1.62577 8.71846,-2.24038 0,-0.51287 -3.123884,-1.39631 -7.672892,-2.1699 -2.675325,-0.45497 -13.573685,-0.45573 -17.330178,-10e-4 -6.628208,0.80197 -9.756302,1.44666 -9.596362,1.97778 0.283839,0.94254 4.034372,2.00553 8.990623,2.54817 3.427234,0.37523 13.409096,0.3076 16.890349,-0.11444 z"
         id="path105"
         clip-path="url(#clipPath108)"
         sodipodi:nodetypes="cscscsssscccccsscsssccsssssssssssssccccssscsssscssssssccsssssssssssccsscccssccccccsccccsccssssccssssccssscssscsssssssssssssssssssssssscsscsscc"
         transform="matrix(0.32450977,0,0,0.32450977,56.546557,-35.775834)" /></g><g
       id="g141"
       transform="matrix(1.6905999,0,0,1.6405684,37.25688,44.112744)"><path
         style="fill:#000000;stroke-width:0.548267"
         d="m 18.593245,85.158763 c 1.118892,-1.510493 1.609153,-2.582451 3.731892,-8.159729 0.379574,-0.997299 0.843725,-2.121172 1.031454,-2.497495 0.391059,-0.783955 0.420808,-0.983989 0.146329,-0.983989 -0.216113,0 -1.699291,2.048325 -2.783499,3.844139 -0.738513,1.22323 -1.846108,3.603929 -2.539359,5.458201 -0.42582,1.138939 -0.87286,3.016485 -0.764117,3.209244 0.161416,0.286152 0.513319,0.02599 1.177293,-0.870371 z m -4.870981,0.23815 c 0.836256,-0.430474 2.551977,-2.224807 3.6607,-3.828427 0.551617,-0.797842 1.266755,-1.803009 1.589203,-2.233704 0.596571,-0.79686 1.203027,-1.726066 2.565923,-3.931431 0.419095,-0.678159 0.943628,-1.395768 1.098239,-1.643073 0.876928,-1.402596 -0.255634,-0.342263 -0.439173,-0.196175 -0.138034,0.109886 -2.905202,2.61613 -4.220295,4.160243 -1.649042,1.936231 -2.516214,3.237614 -3.751661,5.630245 -0.63084,1.221711 -1.123877,2.243733 -1.095635,2.271152 0.02827,0.0274 0.29497,-0.07555 0.592741,-0.22883 z m 7.720317,-1.833827 c 0.814519,-1.647965 1.704319,-3.944457 2.206067,-5.693681 0.194528,-0.678164 0.542721,-1.820526 0.773762,-2.538583 0.414478,-1.28816 0.488013,-1.681541 0.44743,-2.393519 -0.02029,-0.356394 -0.02455,-0.357644 -0.247695,-0.07253 -0.747855,0.955688 -2.625,5.974672 -3.770686,10.0818 -0.3517,1.260797 -0.437563,2.030862 -0.226436,2.030862 0.06518,0 0.433084,-0.63646 0.817558,-1.414349 z m -8.668487,-2.920989 c 1.912415,-0.98112 3.464315,-2.132598 5.691957,-4.223308 1.492592,-1.400845 2.886771,-2.97667 2.750001,-3.108303 -0.03117,-0.03004 -0.48106,0.156398 -0.999658,0.414314 -2.811237,1.398103 -6.195572,3.996409 -8.176332,6.277335 -1.048593,1.207494 -1.250505,1.507368 -0.998879,1.483497 0.05988,-0.0056 0.83965,-0.385266 1.732911,-0.843535 z m 0.221887,-3.11153 c 0.660171,-0.345929 2.267801,-1.276142 3.572501,-2.067129 1.3047,-0.790994 2.740817,-1.65533 3.191374,-1.920745 0.450559,-0.265416 0.922251,-0.575487 1.048208,-0.689043 0.466209,-0.466079 0.654303,-0.751189 0.583303,-0.995382 -0.25531,-0.157784 -1.851829,0.742187 -5.526826,3.115562 -4.343684,2.805211 -5.771637,4.077952 -2.868543,2.556737 z m 13.893294,-5.038016 c 0.518597,-0.310998 1.171382,-0.636454 1.450625,-0.723234 0.279246,-0.08677 0.638279,-0.212594 0.797845,-0.279587 0.159575,-0.06699 0.417026,-0.163173 0.572118,-0.213725 l 3.637655,-1.151664 c 1.966622,-0.825495 3.798364,-2.08393 5.223823,-3.58884 1.792709,-1.892634 2.753126,-3.598913 3.622642,-6.435988 1.143333,-3.730506 1.068577,-3.576214 2.605655,-5.37766 0.481403,-0.564192 1.262749,-1.498755 1.736332,-2.076812 1.387388,-1.693433 2.059785,-1.943645 5.666758,-2.108711 3.523374,-0.161248 7.87688,-0.146667 8.044214,-0.160133 5.290131,-0.425764 1.331687,-0.729056 1.930295,-0.697442 l -1.82367,-0.221999 -6.178833,-0.04589 -6.178828,-0.04589 -1.087969,-0.544202 c -0.598383,-0.299308 -1.544921,-0.787753 -2.103408,-1.085428 -1.870855,-0.997174 -3.838936,-0.812244 -5.295814,0.497604 -0.595035,0.534993 -0.918771,1.032341 -1.70034,2.612232 -0.90838,1.83624 -1.410397,2.508994 -1.87223,2.508994 -0.274914,0 -0.252752,0.13234 0.185222,1.106181 0.531642,1.182119 0.636142,1.849852 0.473872,3.02808 -0.172433,1.252095 -0.804023,2.638011 -1.657387,3.636873 -0.35542,0.416025 -1.79053,1.716076 -3.189133,2.889007 -1.94132,1.628079 -2.825516,2.485846 -3.737438,3.625727 -1.817248,2.271519 -2.951586,4.478682 -2.673795,5.202584 0.137881,0.359316 0.508628,0.275734 1.551812,-0.349854 z m 15.521698,-22.52957 c 0,-0.427267 0.497205,-0.72541 0.873718,-0.523909 0.567168,0.303535 0.162244,1.032794 -0.502869,0.905651 -0.260326,-0.04979 -0.370849,-0.163528 -0.370849,-0.381742 z M 22.644535,70.910197 c 1.480143,-0.806865 2.507992,-1.599734 3.323646,-2.563831 1.563013,-1.847473 3.046089,-3.174724 4.869973,-4.358292 0.780142,-0.506253 1.418437,-0.986801 1.418437,-1.067884 0,-0.08966 -0.127879,-0.0762 -0.326389,0.03438 -0.188057,0.10475 -0.821826,0.180246 -1.495331,0.178119 -0.985895,-0.0032 -1.274953,-0.06295 -1.845924,-0.38207 l -0.67698,-0.378369 -1.478763,1.547178 c -2.291239,2.397246 -4.445919,5.53341 -4.974767,7.240851 -0.135432,0.437269 -0.03658,0.416429 1.186098,-0.250096 z m 9.031808,-8.616428 c 0.96385,-0.255513 2.254078,-1.045865 3.118488,-1.910266 1.825738,-1.825728 2.145822,-4.104067 0.873429,-6.21707 -0.263464,-0.437532 -0.449255,-0.825286 -0.412861,-0.86168 0.09375,-0.09375 -3.17985,-2.700974 -5.247276,-4.179116 C 27.058796,47.016961 17.157173,40.473484 15.212182,39.347751 14.653447,39.024362 13.249759,38.203694 12.092887,37.524045 9.0594283,35.741925 5.9948082,34.171511 4.3746395,33.568954 3.0006498,33.057953 1.9385049,32.894689 1.9385049,33.194493 c 0,0.456724 2.1253611,3.95892 3.3867606,5.580745 0.7095964,0.91236 1.6270738,1.735076 2.3489853,2.106361 0.364774,0.187615 0.6990537,0.399061 0.7428157,0.469884 0.1037365,0.167854 -0.9438612,-0.368007 -1.6307569,-0.83414 -0.8136275,-0.552142 -1.359017,-0.44638 -1.1467583,0.222383 0.1589684,0.500859 2.1338764,3.049853 3.3896141,4.374952 1.0795676,1.139185 1.3049506,1.303835 2.3112966,1.688432 1.449787,0.554061 4.19213,1.450759 6.917588,2.261928 1.196765,0.356186 2.093273,0.650934 1.992223,0.654992 -0.563911,0.02264 -7.834475,-2.210387 -9.462943,-2.906394 -1.1247438,-0.480714 -1.3580742,-0.36721 -0.8337987,0.405596 0.5846287,0.861779 3.2040857,3.455327 3.9023237,3.863724 0.787458,0.460592 1.341542,0.583427 4.329669,0.959848 3.143133,0.39594 5.095208,0.700365 5.205602,0.81181 0.04908,0.0495 -0.139317,0.05038 -0.418537,0.0016 -0.457473,-0.07941 -8.728672,-1.098231 -8.915953,-1.098231 -0.04283,0 -0.07795,0.125261 -0.07795,0.278375 0,0.40598 1.836599,2.019421 3.148159,2.765644 l 1.122971,0.638915 1.889922,-0.0296 c 1.039453,-0.01622 2.542699,-0.05726 3.340547,-0.09105 l 1.450622,-0.06143 -1.885814,0.197079 c -1.037193,0.108399 -2.616339,0.201953 -3.509207,0.207907 -0.942867,0.0064 -1.662014,0.07332 -1.715531,0.159913 -0.200208,0.323953 1.60344,1.692364 2.781213,2.11008 0.715668,0.253825 0.81819,0.25467 2.382615,0.01961 0.899121,-0.135077 1.657619,-0.222737 1.685558,-0.194803 0.0705,0.0705 -2.267626,0.526861 -2.712618,0.529448 -0.502699,0.0027 -0.752963,0.191992 -0.640855,0.484152 0.223961,0.583617 3.191158,1.960119 3.852467,1.787179 0.169647,-0.04435 0.269893,0.0059 0.269893,0.135567 0,0.258924 0.797028,0.753706 1.396738,0.867071 0.284003,0.05368 0.636849,-0.0027 0.942907,-0.151296 l 0.489078,-0.237077 c -0.106118,0.244582 -0.297595,0.457405 -0.362656,0.707789 0,0.460098 2.542554,0.737861 3.771628,0.412026 z m -5.790419,-2.032375 c 0.147427,-0.135431 2.163849,-1.101093 2.163849,-1.036261 0,0.08752 -1.903086,1.074558 -2.09132,1.084656 -0.07314,0.0039 -0.105764,-0.01788 -0.07253,-0.04842 z M 13.214785,43.92747 c -2.831801,-1.389149 -4.6357485,-2.33953 -4.5684648,-2.406817 0.049942,-0.04991 6.6197218,3.210158 6.7709248,3.359865 0.191428,0.189547 -0.357295,-0.0479 -2.20246,-0.953048 z m 18.446486,5.550429 C 31.598115,49.283423 29.93779,47.360866 27.687121,44.876106 25.65018,42.627308 16.972916,33.791998 15.412345,32.377764 14.353704,31.41839 12.861037,30.434181 12.464674,30.434181 c -0.182168,0 -0.06365,1.022549 0.211703,1.826829 0.161349,0.471249 0.610009,1.509593 0.997036,2.307433 0.387035,0.797841 0.753057,1.613813 0.813395,1.813274 0.197594,0.653234 1.09974,2.386048 1.423524,2.734268 0.174262,0.187413 0.640599,0.505516 1.036302,0.706896 0.639776,0.325601 2.473051,1.441303 6.098481,3.711438 3.449343,2.159874 6.391557,4.223972 8.398558,5.891967 0.165268,0.137341 0.252121,0.157953 0.217598,0.0516 z"
         id="path138"
         sodipodi:nodetypes="sssssssscssssssssccsssscsssssssssssssssssscssccssssssccccsssssssssssccssssssssscscsssscsssssssssssssssssssssscssscsscsssssscssssccsccsscsssssscsssssssssscc" /><path
         style="fill:#000000;stroke-width:0.0284434"
         d="m 61.977836,60.050494 c -0.01453,1.79e-4 -0.06905,-0.003 -0.121037,-0.0069 -0.356645,-0.02749 -0.660024,-0.191093 -0.802577,-0.432804 -0.05883,-0.09975 -0.08073,-0.167955 -0.09745,-0.303548 -0.01284,-0.103956 -0.01352,-0.130076 -0.0047,-0.200824 0.04285,-0.352273 0.249496,-0.697802 0.620545,-1.037571 0.227058,-0.207917 0.50469,-0.38695 0.767984,-0.495242 0.196159,-0.08067 0.373281,-0.124179 0.577654,-0.141886 0.352953,-0.03058 0.591421,-0.003 0.757919,0.08765 l 0.04068,0.02215 -0.470715,-3.793944 -0.470715,-3.793944 0.13751,-0.01713 0.13751,-0.01713 0.01199,0.05729 c 0.09281,0.44417 0.229732,0.713413 0.483287,0.950336 0.07958,0.07436 0.139334,0.117033 0.353099,0.252203 1.219729,0.771226 1.76874,1.279802 2.08873,1.934889 0.183335,0.375326 0.25362,0.715998 0.244838,1.186697 -0.0025,0.134216 -0.02083,0.349564 -0.03945,0.463734 l -0.01014,0.06192 0.0443,0.06653 c 0.162295,0.243763 0.268517,0.492852 0.332997,0.780856 0.02984,0.133286 0.06197,0.456895 0.05981,0.60255 -0.0069,0.464281 -0.09857,0.879148 -0.28553,1.291683 -0.01803,0.03979 -0.03798,0.08407 -0.04432,0.09841 l -0.01149,0.02609 -0.08887,0.01115 c -0.04888,0.0061 -0.08926,0.0081 -0.08971,0.0044 -4.48e-4,-0.0037 0.01385,-0.03795 0.03163,-0.0762 0.147562,-0.316155 0.262149,-0.865078 0.261816,-1.254221 -3.11e-4,-0.207098 -0.06001,-0.548589 -0.135719,-0.775631 -0.05798,-0.173869 -0.147596,-0.332786 -0.263737,-0.467676 -0.28694,-0.333217 -0.622098,-0.527246 -1.600475,-0.926518 -0.46168,-0.188408 -0.59812,-0.245352 -0.729869,-0.304613 l -0.122405,-0.05506 0.274719,2.22342 0.274719,2.223418 -0.0093,0.08458 c -0.03969,0.358842 -0.233541,0.700766 -0.573942,1.012322 -0.318158,0.291199 -0.690987,0.492255 -1.114291,0.600904 -0.07995,0.02051 -0.341285,0.05687 -0.415211,0.05777 z m 4.002948,-5.665387 c -0.0093,-0.158207 -0.05418,-0.472354 -0.08084,-0.566298 -0.04918,-0.173429 -0.110512,-0.305392 -0.218239,-0.469551 -0.138101,-0.210433 -0.31795,-0.406392 -0.595863,-0.649208 -0.368642,-0.322089 -0.94505,-0.626627 -1.789272,-0.945339 l -0.01865,-0.0071 0.01233,0.05788 c 0.08571,0.403142 0.317891,0.814001 0.660527,1.16888 0.218747,0.226561 0.36448,0.343129 0.661916,0.529447 0.368652,0.230927 0.577657,0.374643 0.806156,0.554326 0.222974,0.175344 0.372853,0.310583 0.509211,0.45948 l 0.05918,0.06462 4e-6,-0.04401 c 3e-6,-0.02421 -0.0029,-0.09314 -0.0064,-0.153188 z"
         id="path140" /></g><circle
       id="path139"
       style="fill:#ff9b00;stroke:#ffffff;stroke-width:0.264583"
       cx="91.888359"
       cy="36.909245"
       r="0" /><g
       id="g102"
       transform="matrix(1.6524409,0,0,1.6895186,-37.82306,45.556045)"><path
         d="m 118.67745,43.58898 q -0.32724,0.195659 -0.6049,0.731304 l -0.45615,0.87564 h -0.52556 l 0.45284,-0.87564 q 0.19172,-0.36886 0.49251,-0.574136 0.22807,-0.157171 0.64126,-0.157168 z m -0.8462,-0.224526 q -0.17517,0.08019 -0.36029,0.291881 -0.18842,0.211687 -0.39336,0.615833 l -0.6776,1.30865 h 1.52051 l 0.64786,-1.260536 q 0.20492,-0.397727 0.44624,-0.564515 0.24128,-0.166793 0.63795,-0.166793 h 0.0662 v 1.991841 h 1.38829 v -4.788752 h -2.37 q -0.8462,0 -1.26269,0.343197 -0.41647,0.3432 -0.41647,1.036013 0,0.667155 0.38672,0.981486 0.16198,0.131493 0.38674,0.211687 z m 1.88741,-2.187494 v 2.02712 h -1.07427 q -0.0792,0 -0.15535,-0.0064 v -2.014291 q 0.076,-0.0064 0.15535,-0.0064 z m -1.6428,0.08982 v 1.844295 q -0.19173,-0.07376 -0.29088,-0.169982 -0.26444,-0.24377 -0.26444,-0.750549 0,-0.506778 0.26113,-0.753754 0.11231,-0.105844 0.29417,-0.169982 z m 2.63444,-0.08982 v 4.018961 h -0.59498 V 41.17696 Z"
         id="path19"
         style="font-weight:bold;font-size:2.36892px;line-height:1.25;font-family:Laksaman;-inkscape-font-specification:'Laksaman, Bold';letter-spacing:0px;word-spacing:0px;stroke-width:0.166712"
         aria-label="â„" /><path
         d="m 108.27884,38.762048 v -1.601493 h -0.5962 v 1.601493 c 0,0.952206 -0.28721,1.428308 -1.07594,1.428308 -0.79493,0 -1.04619,-0.470076 -1.04619,-1.428308 v -1.601493 h -0.5962 v 1.601493 c 0,1.283668 0.4562,1.922492 1.64239,1.922492 1.18619,0 1.67214,-0.638824 1.67214,-1.922492 z"
         id="path20"
         style="font-weight:bold;font-size:2.17336px;line-height:1.25;font-family:Laksaman;-inkscape-font-specification:'Laksaman, Bold';letter-spacing:0px;word-spacing:0px;stroke-width:0.152946"
         aria-label="U"
         sodipodi:nodetypes="sccsssccsss" /><g
         id="g22"
         transform="matrix(2.8575154,0,0,2.7729503,11.458759,-65.965683)"><path
           d="m 34.222675,37.882219 v 0.577541 h 0.208642 v -0.577541 c 0,-0.343391 0.100513,-0.515086 0.37653,-0.515086 0.27819,0 0.366121,0.169522 0.366121,0.515086 v 0.577541 h 0.208643 v -0.577541 c 0,-0.462925 -0.159652,-0.693302 -0.574764,-0.693302 -0.415112,0 -0.585172,0.230377 -0.585172,0.693302 z"
           id="path21"
           style="font-weight:bold;font-size:2.17336px;line-height:1.25;font-family:Laksaman;-inkscape-font-specification:'Laksaman, Bold';letter-spacing:0px;word-spacing:0px;stroke-width:0.054334"
           aria-label="U"
           sodipodi:nodetypes="sccsssccsss" /><path
           d="m 35.174185,37.88338 v 0.577541 h 0.208642 V 37.88338 c 0,-0.343391 0.100513,-0.515086 0.37653,-0.515086 0.27819,0 0.366121,0.169522 0.366121,0.515086 v 0.577541 h 0.208643 V 37.88338 c 0,-0.462925 -0.159652,-0.693302 -0.574764,-0.693302 -0.415112,0 -0.585172,0.230377 -0.585172,0.693302 z"
           id="path22"
           style="font-weight:bold;font-size:2.17336px;line-height:1.25;font-family:Laksaman;-inkscape-font-specification:'Laksaman, Bold';letter-spacing:0px;word-spacing:0px;stroke-width:0.054334"
           aria-label="U"
           sodipodi:nodetypes="sccsssccsss" /></g><g
         id="g32"
         transform="matrix(2.8575154,0,0,2.7729503,12.04014,-65.885628)"><path
           d="m 31.019218,37.85451 v 0.577541 H 31.22786 V 37.85451 c 0,-0.343391 0.100513,-0.515086 0.37653,-0.515086 0.27819,0 0.366121,0.169522 0.366121,0.515086 v 0.577541 h 0.208643 V 37.85451 c 0,-0.462925 -0.159652,-0.693302 -0.574764,-0.693302 -0.415112,0 -0.585172,0.230377 -0.585172,0.693302 z"
           id="path31"
           style="font-weight:bold;font-size:2.17336px;line-height:1.25;font-family:Laksaman;-inkscape-font-specification:'Laksaman, Bold';letter-spacing:0px;word-spacing:0px;stroke-width:0.054334"
           aria-label="U"
           sodipodi:nodetypes="sccsssccsss" /><path
           d="m 31.019218,36.638305 v 1.793746 h 0.208642 v -1.793746 z"
           id="path32"
           style="font-weight:bold;font-size:2.17336px;line-height:1.25;font-family:Laksaman;-inkscape-font-specification:'Laksaman, Bold';letter-spacing:0px;word-spacing:0px;stroke-width:0.0957546"
           aria-label="U"
           sodipodi:nodetypes="ccccc" /></g><path
         d="m 102.32043,43.979325 v 1.601493 h 0.5962 v -1.601493 c 0,-0.952206 0.28722,-1.428308 1.07594,-1.428308 v -0.494184 c -1.18619,0 -1.67214,0.638824 -1.67214,1.922492 z"
         id="path35"
         style="font-weight:bold;font-size:2.17336px;line-height:1.25;font-family:Laksaman;-inkscape-font-specification:'Laksaman, Bold';letter-spacing:0px;word-spacing:0px;stroke-width:0.152946"
         aria-label="U"
         sodipodi:nodetypes="sccsccs" /><path
         d="m 108.27884,43.658326 v -1.601493 h -0.5962 v 1.601493 c 0,0.952206 -0.28721,1.428308 -1.07594,1.428308 -0.79493,0 -1.04619,-0.470076 -1.04619,-1.428308 v -1.601493 h -0.5962 v 1.601493 c 0,1.283668 0.4562,1.922492 1.64239,1.922492 1.18619,0 1.67214,-0.638824 1.67214,-1.922492 z"
         id="path36"
         style="font-weight:bold;font-size:2.17336px;line-height:1.25;font-family:Laksaman;-inkscape-font-specification:'Laksaman, Bold';letter-spacing:0px;word-spacing:0px;stroke-width:0.152946"
         aria-label="U"
         sodipodi:nodetypes="sccsssccsss" /><g
         id="g67"
         transform="matrix(2.8575154,0,0,2.7729503,-8.7082845,-60.836255)"><path
           d="m 41.28022,37.798139 v 0.577541 h 0.208642 v -0.577541 c 0,-0.343391 0.100513,-0.515086 0.37653,-0.515086 0.27819,0 0.366121,0.169522 0.366121,0.515086 v 0.577541 h 0.208643 v -0.577541 c 0,-0.462925 -0.159652,-0.693302 -0.574764,-0.693302 -0.415112,0 -0.585172,0.230377 -0.585172,0.693302 z"
           id="path37"
           style="font-weight:bold;font-size:2.17336px;line-height:1.25;font-family:Laksaman;-inkscape-font-specification:'Laksaman, Bold';letter-spacing:0px;word-spacing:0px;stroke-width:0.054334"
           aria-label="U"
           sodipodi:nodetypes="sccsssccsss" /><path
           d="m 42.23173,37.7993 v 0.577541 h 0.208642 V 37.7993 c 0,-0.343391 0.100513,-0.515086 0.37653,-0.515086 0.27819,0 0.366121,0.169522 0.366121,0.515086 v 0.577541 h 0.208643 V 37.7993 c 0,-0.462925 -0.159652,-0.693302 -0.574764,-0.693302 -0.415112,0 -0.585172,0.230377 -0.585172,0.693302 z"
           id="path63"
           style="font-weight:bold;font-size:2.17336px;line-height:1.25;font-family:Laksaman;-inkscape-font-specification:'Laksaman, Bold';letter-spacing:0px;word-spacing:0px;stroke-width:0.054334"
           aria-label="U"
           sodipodi:nodetypes="sccsssccsss" /></g><g
         id="g100"
         transform="matrix(2.8575154,0,0,2.7729503,-7.2728556,-61.073767)"><path
           d="m 37.77763,36.668748 v 1.793746 h 0.208642 v -1.793746 z"
           id="path69"
           style="font-weight:bold;font-size:2.17336px;line-height:1.25;font-family:Laksaman;-inkscape-font-specification:'Laksaman, Bold';letter-spacing:0px;word-spacing:0px;stroke-width:0.0957546"
           aria-label="U"
           sodipodi:nodetypes="ccccc" /><path
           d="m 36.821023,37.892844 v 0.577541 h 0.208642 v -0.577541 c 0,-0.343391 0.100513,-0.515086 0.37653,-0.515086 0.27819,0 0.366121,0.169522 0.366121,0.515086 v 0.577541 h 0.208643 v -0.577541 c 0,-0.462925 -0.159652,-0.693302 -0.574764,-0.693302 -0.415112,0 -0.585172,0.230377 -0.585172,0.693302 z"
           id="path99"
           style="font-weight:bold;font-size:2.17336px;line-height:1.25;font-family:Laksaman;-inkscape-font-specification:'Laksaman, Bold';letter-spacing:0px;word-spacing:0px;stroke-width:0.054334"
           aria-label="U"
           sodipodi:nodetypes="sccsssccsss"
           clip-path="url(#clipPath144)"
           transform="translate(0.00689559)" /><path
           d="m 36.821023,37.892844 v 0.577541 h 0.208642 v -0.577541 c 0,-0.343391 0.100513,-0.515086 0.37653,-0.515086 v -0.178216 c -0.415112,0 -0.585172,0.230377 -0.585172,0.693302 z"
           id="path144"
           style="font-weight:bold;font-size:2.17336px;line-height:1.25;font-family:Laksaman;-inkscape-font-specification:'Laksaman, Bold';letter-spacing:0px;word-spacing:0px;stroke-width:0.054334"
           aria-label="U"
           sodipodi:nodetypes="sccsccs"
           clip-path="url(#clipPath144)"
           transform="matrix(1,0,0,-1.0000203,0.00689559,75.662791)" /></g></g></g></svg>
